<svg width="24" height="24" viewBox="0 0 24 24" fill="none" xmlns="http://www.w3.org/2000/svg">
<path d="M15.9004 3.90063C18.7982 3.90084 21.1138 6.19792 21.2002 9.12622V9.30005C21.2002 10.8631 20.5949 12.2175 19.5918 13.137L19.2998 13.4045V13.47C19.1482 13.5985 18.9523 13.7671 18.7246 13.9651C18.219 14.4048 17.5418 15 16.8047 15.6497C15.3322 16.9475 13.6195 18.4616 12.5234 19.4084C12.2572 19.6303 11.8414 19.6303 11.5752 19.4084C10.4766 18.4596 8.73641 16.9425 7.25488 15.6477C6.51156 14.9981 5.83372 14.4049 5.33594 13.968C5.11103 13.7706 4.93153 13.6114 4.7998 13.4954V13.427L4.53613 13.1643C3.49542 12.1236 2.90039 10.7483 2.90039 9.30005V9.10962C2.99518 6.30691 5.3896 4.00024 8.2002 4.00024C8.61759 4.00029 9.17164 4.1454 9.72363 4.44263C10.2498 4.726 10.7092 5.11507 11.0127 5.54712C11.4602 6.46944 12.802 6.45052 13.2129 5.49048C13.4637 5.04674 13.9067 4.64543 14.4385 4.34888C14.9899 4.04136 15.5399 3.90063 15.9004 3.90063Z" stroke="#6B7280" stroke-width="1.8"/>
</svg>
