<svg width="24" height="24" viewBox="0 0 24 24" fill="none" xmlns="http://www.w3.org/2000/svg">
<path d="M15.9004 3.90039C18.7982 3.9006 21.1138 6.19768 21.2002 9.12598V9.2998C21.2002 10.8628 20.5949 12.2173 19.5918 13.1367L19.2998 13.4043V13.4697C19.1482 13.5982 18.9523 13.7669 18.7246 13.9648C18.219 14.4045 17.5418 14.9998 16.8047 15.6494C15.3322 16.9472 13.6195 18.4614 12.5234 19.4082C12.2572 19.63 11.8414 19.6301 11.5752 19.4082C10.4766 18.4593 8.73641 16.9422 7.25488 15.6475C6.51156 14.9978 5.83372 14.4047 5.33594 13.9678C5.11103 13.7704 4.93153 13.6112 4.7998 13.4951V13.4268L4.53613 13.1641C3.49542 12.1234 2.90039 10.748 2.90039 9.2998V9.10938C2.99518 6.30667 5.3896 4 8.2002 4C8.61759 4.00005 9.17164 4.14516 9.72363 4.44238C10.2498 4.72575 10.7092 5.11483 11.0127 5.54688C11.4602 6.4692 12.802 6.45027 13.2129 5.49023C13.4637 5.04649 13.9067 4.64519 14.4385 4.34863C14.9899 4.04112 15.5399 3.90039 15.9004 3.90039Z" stroke="#6B7280" stroke-width="1.8"/>
</svg>
