<svg width="153" height="52" viewBox="0 0 153 52" fill="none" xmlns="http://www.w3.org/2000/svg">
<rect y="5.5166" width="40" height="40.1354" rx="11.1782" fill="#3692FF"/>
<path d="M19.3141 16.6912C19.8134 18.4167 18.4932 20.318 16.9799 20.7589C15.4666 21.1998 13.3991 20.2854 12.8998 18.5599C12.4005 16.8344 13.4487 14.4436 14.962 14.0028C16.9799 13.4149 18.8148 14.9657 19.3141 16.6912Z" fill="#222327"/>
<path d="M20.1463 16.6912C19.647 18.4167 20.9673 20.318 22.4806 20.7589C23.9939 21.1998 26.0613 20.2854 26.5606 18.5599C27.0599 16.8344 26.0117 14.4436 24.4984 14.0028C22.4806 13.4149 20.6456 14.9657 20.1463 16.6912Z" fill="#222327"/>
<path d="M29.5167 29.2964C29.5167 33.6852 25.2133 35.3166 19.3432 35.3166C13.4731 35.3166 9.26709 33.6852 9.26709 29.2964C9.26709 24.1912 13.4731 19.6641 19.3432 19.6641C25.2133 19.6641 29.5167 23.806 29.5167 29.2964Z" fill="#F3D6DD"/>
<path d="M17.4003 28.4299C17.4003 29.8673 16.4777 31.4441 15.1884 31.4441C13.8991 31.4441 11.8164 30.2729 11.8164 28.1258C11.8164 26.1087 14.0664 25.3914 16.3913 25.7597C17.8163 25.9855 17.4003 26.9925 17.4003 28.4299Z" fill="#222327"/>
<path d="M16.3219 28.2849C16.3219 28.5005 16.257 28.6753 15.9328 28.6753C15.6085 28.6753 15.5437 28.5005 15.5437 28.2849C15.5437 28.0693 15.6734 27.8945 15.9328 27.8945C16.1922 27.8945 16.3219 28.0693 16.3219 28.2849Z" fill="white"/>
<path d="M21.3221 28.4299C21.3221 29.8673 22.2447 31.4441 23.534 31.4441C24.8233 31.4441 26.906 30.2729 26.906 28.1258C26.906 26.1087 24.6561 25.3914 22.3311 25.7597C20.9061 25.9855 21.3221 26.9925 21.3221 28.4299Z" fill="#222327"/>
<path d="M22.4015 28.2849C22.4015 28.5005 22.4664 28.6753 22.7906 28.6753C23.1148 28.6753 23.1797 28.5005 23.1797 28.2849C23.1797 28.0693 23.05 27.8945 22.7906 27.8945C22.5312 27.8945 22.4015 28.0693 22.4015 28.2849Z" fill="white"/>
<path d="M17.875 30.5096C17.7964 30.395 17.6399 30.3657 17.5253 30.4442C17.4107 30.5227 17.3815 30.6793 17.46 30.7939L17.875 30.5096ZM19.3174 30.2002L19.5554 30.1187C19.5205 30.017 19.4249 29.9487 19.3174 29.9487C19.21 29.9487 19.1144 30.017 19.0795 30.1187L19.3174 30.2002ZM21.1749 30.7939C21.2534 30.6793 21.2242 30.5227 21.1096 30.4442C20.995 30.3657 20.8385 30.395 20.7599 30.5096L21.1749 30.7939ZM17.46 30.7939C17.5295 30.8953 17.6557 31.0312 17.8249 31.1435C17.9957 31.2568 18.2239 31.3547 18.4925 31.3547V30.8517C18.3485 30.8517 18.2158 30.7992 18.103 30.7243C17.9886 30.6485 17.9086 30.5586 17.875 30.5096L17.46 30.7939ZM18.4925 31.3547C18.823 31.3547 19.0688 31.119 19.2218 30.916C19.3834 30.7016 19.4975 30.4506 19.5554 30.2817L19.0795 30.1187C19.0342 30.2508 18.9422 30.4513 18.8201 30.6132C18.6895 30.7865 18.5744 30.8517 18.4925 30.8517V31.3547ZM19.0795 30.2817C19.1374 30.4506 19.2515 30.7016 19.4131 30.916C19.5661 31.119 19.8119 31.3547 20.1424 31.3547V30.8517C20.0605 30.8517 19.9454 30.7865 19.8148 30.6132C19.6927 30.4513 19.6006 30.2508 19.5554 30.1187L19.0795 30.2817ZM20.1424 31.3547C20.411 31.3547 20.6392 31.2568 20.81 31.1435C20.9792 31.0312 21.1054 30.8953 21.1749 30.7939L20.7599 30.5096C20.7263 30.5586 20.6463 30.6485 20.5319 30.7243C20.4191 30.7992 20.2863 30.8517 20.1424 30.8517V31.3547Z" fill="#222327"/>
<path d="M20.6906 29.9678C20.6906 30.177 19.7486 30.4433 19.4315 30.527C19.3638 30.5449 19.2939 30.5449 19.2261 30.527C18.9091 30.4433 17.967 30.177 17.967 29.9678C17.967 29.7162 18.72 29.4473 19.3288 29.4473C19.9376 29.4473 20.6906 29.7162 20.6906 29.9678Z" fill="#222327"/>
<path d="M19.166 23.2761C15.3818 23.2761 13.9911 21.9466 13.7661 21.169L15.5661 19.2124L19.466 18.5352L24.8659 21.169C24.5409 21.7961 22.9544 23.2761 19.166 23.2761Z" fill="#222327"/>
<path fill-rule="evenodd" clip-rule="evenodd" d="M19.6898 37.4989C27.5098 37.4989 33.2427 35.295 33.2427 29.3657C33.2427 21.9482 27.5098 16.3525 19.6898 16.3525C11.8698 16.3525 6.2666 22.4687 6.2666 29.3657C6.2666 35.295 11.8698 37.4989 19.6898 37.4989ZM19.3823 35.2218C25.1345 35.2218 29.3515 33.6079 29.3515 29.2658C29.3515 23.8339 25.1345 19.7362 19.3823 19.7362C13.6301 19.7362 9.50854 24.2151 9.50854 29.2658C9.50854 33.6079 13.6301 35.2218 19.3823 35.2218Z" fill="white"/>
<path d="M70.8926 22.6522H73.9685V26.2408H70.8926V33.5206H66.2786V29.0092C62.9976 29.6757 59.7422 30.0345 55.0001 30.0345H49.6171V26.5228H51.6678V19.243H50.1298V15.7825H64.2792V19.243H62.7413V26.1383C63.9973 25.9845 65.1764 25.8051 66.2786 25.6V15.5262H70.8926V22.6522ZM52.1548 39.6213V32.0083H56.8713V36.0583H71.4052V39.6213H52.1548ZM56.2817 26.5228C56.9225 26.4972 57.5377 26.4972 58.1273 26.4715V19.243H56.2817V26.5228ZM99.6016 24.4465V28.0351H96.5256V39.6213H91.9117V35.5969C88.6306 36.5453 85.3752 37.0836 80.6331 37.0836H76.0192V16.2952H89.1433V19.7557H80.6331V33.5719C85.324 33.5719 88.6563 33.1105 91.9117 32.1877V15.5262H96.5256V24.4465H99.6016ZM125.235 24.4465V28.0351H122.159V39.6213H117.545V15.5262H122.159V24.4465H125.235ZM101.652 37.0836V16.2952H115.058V37.0836H101.652ZM106.266 33.5719H110.496V19.8069H106.266V33.5719ZM144.844 15.5262H149.33V29.4193H144.844V15.5262ZM125.747 26.6766C128.746 26.0614 131.002 25.113 132.258 23.9082L127.285 24.2158V20.8835H133.335V19.243H127.798V15.7825H137.821V20.3965H139.282V15.6544H143.639V29.4193H139.282V23.9851H137.154C135.795 26.6253 132.386 28.8041 127.208 30.1114L125.747 26.6766ZM128.541 35.9558C134.873 35.7251 136.718 34.4178 136.718 32.1877V30.2396H141.332V32.5978C141.332 33.213 141.255 33.8026 141.102 34.3409C144.075 34.5459 147.023 34.9561 149.33 35.4944L148.099 39.6213C145.459 38.6985 141.768 37.8013 138.795 37.3143C136.667 38.7498 133.258 39.4419 129.028 39.6213L128.541 35.9558Z" fill="#3692FF"/>
</svg>
