<svg width="40" height="41" viewBox="0 0 40 41" fill="none" xmlns="http://www.w3.org/2000/svg">
<rect y="0.516785" width="40" height="40.1354" rx="11.1782" fill="#3692FF"/>
<path d="M19.3143 11.6914C19.8136 13.4169 18.4934 15.3182 16.9801 15.7591C15.4668 16.1999 13.3994 15.2856 12.9001 13.5601C12.4008 11.8346 13.4489 9.44381 14.9622 9.00294C16.9801 8.41507 18.815 9.96591 19.3143 11.6914Z" fill="#222327"/>
<path d="M20.1466 11.6914C19.6473 13.4169 20.9675 15.3182 22.4808 15.7591C23.9941 16.1999 26.0616 15.2856 26.5609 13.5601C27.0602 11.8346 26.012 9.44381 24.4987 9.00294C22.4808 8.41507 20.6459 9.96591 20.1466 11.6914Z" fill="#222327"/>
<path d="M29.5167 24.2965C29.5167 28.6854 25.2133 30.3167 19.3432 30.3167C13.4731 30.3167 9.26709 28.6854 9.26709 24.2965C9.26709 19.1914 13.4731 14.6642 19.3432 14.6642C25.2133 14.6642 29.5167 18.8061 29.5167 24.2965Z" fill="#F3D6DD"/>
<path d="M17.4003 23.4301C17.4003 24.8674 16.4777 26.4443 15.1884 26.4443C13.8991 26.4443 11.8164 25.2731 11.8164 23.1259C11.8164 21.1089 14.0664 20.3915 16.3913 20.7599C17.8163 20.9856 17.4003 21.9927 17.4003 23.4301Z" fill="#222327"/>
<path d="M16.3221 23.285C16.3221 23.5006 16.2573 23.6754 15.933 23.6754C15.6088 23.6754 15.5439 23.5006 15.5439 23.285C15.5439 23.0694 15.6736 22.8946 15.933 22.8946C16.1924 22.8946 16.3221 23.0694 16.3221 23.285Z" fill="white"/>
<path d="M21.3223 23.4301C21.3223 24.8674 22.2449 26.4443 23.5342 26.4443C24.8235 26.4443 26.9062 25.2731 26.9062 23.1259C26.9062 21.1089 24.6563 20.3915 22.3313 20.7599C20.9064 20.9856 21.3223 21.9927 21.3223 23.4301Z" fill="#222327"/>
<path d="M22.4015 23.2851C22.4015 23.5007 22.4664 23.6755 22.7906 23.6755C23.1148 23.6755 23.1797 23.5007 23.1797 23.2851C23.1797 23.0695 23.05 22.8947 22.7906 22.8947C22.5312 22.8947 22.4015 23.0695 22.4015 23.2851Z" fill="white"/>
<path d="M17.875 25.5097C17.7964 25.3952 17.6399 25.3659 17.5253 25.4444C17.4107 25.5229 17.3815 25.6795 17.46 25.794L17.875 25.5097ZM19.3174 25.2004L19.5554 25.1189C19.5205 25.0172 19.4249 24.9489 19.3174 24.9489C19.21 24.9489 19.1144 25.0172 19.0795 25.1189L19.3174 25.2004ZM21.1749 25.794C21.2534 25.6795 21.2242 25.5229 21.1096 25.4444C20.995 25.3659 20.8385 25.3952 20.7599 25.5097L21.1749 25.794ZM17.46 25.794C17.5295 25.8955 17.6557 26.0314 17.8249 26.1437C17.9957 26.257 18.2239 26.3549 18.4925 26.3549V25.8519C18.3485 25.8519 18.2158 25.7993 18.103 25.7245C17.9886 25.6486 17.9086 25.5588 17.875 25.5097L17.46 25.794ZM18.4925 26.3549C18.823 26.3549 19.0688 26.1191 19.2218 25.9161C19.3834 25.7018 19.4975 25.4508 19.5554 25.2819L19.0795 25.1189C19.0342 25.251 18.9422 25.4515 18.8201 25.6134C18.6895 25.7867 18.5744 25.8519 18.4925 25.8519V26.3549ZM19.0795 25.2819C19.1374 25.4508 19.2515 25.7018 19.4131 25.9161C19.5661 26.1191 19.8119 26.3549 20.1424 26.3549V25.8519C20.0605 25.8519 19.9454 25.7867 19.8148 25.6134C19.6927 25.4515 19.6006 25.251 19.5554 25.1189L19.0795 25.2819ZM20.1424 26.3549C20.411 26.3549 20.6392 26.257 20.81 26.1437C20.9792 26.0314 21.1054 25.8955 21.1749 25.794L20.7599 25.5097C20.7263 25.5588 20.6463 25.6486 20.5319 25.7245C20.4191 25.7993 20.2863 25.8519 20.1424 25.8519V26.3549Z" fill="#222327"/>
<path d="M20.6903 24.968C20.6903 25.1772 19.7483 25.4435 19.4313 25.5272C19.3635 25.5451 19.2936 25.5451 19.2259 25.5272C18.9088 25.4435 17.9668 25.1772 17.9668 24.968C17.9668 24.7164 18.7197 24.4474 19.3286 24.4474C19.9374 24.4474 20.6903 24.7164 20.6903 24.968Z" fill="#222327"/>
<path d="M19.166 18.2762C15.3818 18.2762 13.9911 16.9468 13.7661 16.1692L15.5661 14.2126L19.466 13.5353L24.8659 16.1692C24.5409 16.7963 22.9544 18.2762 19.166 18.2762Z" fill="#222327"/>
<path fill-rule="evenodd" clip-rule="evenodd" d="M19.6898 32.4991C27.5098 32.4991 33.2427 30.2951 33.2427 24.3659C33.2427 16.9484 27.5098 11.3527 19.6898 11.3527C11.8698 11.3527 6.2666 17.4689 6.2666 24.3659C6.2666 30.2951 11.8698 32.4991 19.6898 32.4991ZM19.3823 30.222C25.1345 30.222 29.3515 28.608 29.3515 24.266C29.3515 18.8341 25.1345 14.7364 19.3823 14.7364C13.6301 14.7364 9.50854 19.2153 9.50854 24.266C9.50854 28.608 13.6301 30.222 19.3823 30.222Z" fill="white"/>
</svg>
