<svg width="153" height="52" viewBox="0 0 153 52" fill="none" xmlns="http://www.w3.org/2000/svg">
<rect y="5.51685" width="40" height="40.1354" rx="11.1782" fill="#3692FF"/>
<path d="M19.3143 16.691C19.8136 18.4164 18.4934 20.3178 16.9801 20.7586C15.4668 21.1995 13.3994 20.2851 12.9001 18.5596C12.4008 16.8342 13.4489 14.4434 14.9622 14.0025C16.9801 13.4146 18.815 14.9655 19.3143 16.691Z" fill="#222327"/>
<path d="M20.1466 16.691C19.6473 18.4164 20.9675 20.3178 22.4808 20.7586C23.9941 21.1995 26.0616 20.2851 26.5609 18.5596C27.0602 16.8342 26.012 14.4434 24.4987 14.0025C22.4808 13.4146 20.6459 14.9655 20.1466 16.691Z" fill="#222327"/>
<path d="M29.5167 29.2966C29.5167 33.6854 25.2133 35.3168 19.3432 35.3168C13.4731 35.3168 9.26709 33.6854 9.26709 29.2966C9.26709 24.1915 13.4731 19.6643 19.3432 19.6643C25.2133 19.6643 29.5167 23.8062 29.5167 29.2966Z" fill="#F3D6DD"/>
<path d="M17.4003 28.4301C17.4003 29.8675 16.4777 31.4444 15.1884 31.4444C13.8991 31.4444 11.8164 30.2732 11.8164 28.126C11.8164 26.109 14.0664 25.3916 16.3913 25.7599C17.8163 25.9857 17.4003 26.9927 17.4003 28.4301Z" fill="#222327"/>
<path d="M16.3221 28.2849C16.3221 28.5005 16.2573 28.6753 15.933 28.6753C15.6088 28.6753 15.5439 28.5005 15.5439 28.2849C15.5439 28.0693 15.6736 27.8945 15.933 27.8945C16.1924 27.8945 16.3221 28.0693 16.3221 28.2849Z" fill="white"/>
<path d="M21.3223 28.4301C21.3223 29.8675 22.2449 31.4444 23.5342 31.4444C24.8235 31.4444 26.9062 30.2732 26.9062 28.126C26.9062 26.109 24.6563 25.3916 22.3313 25.7599C20.9064 25.9857 21.3223 26.9927 21.3223 28.4301Z" fill="#222327"/>
<path d="M22.4015 28.2849C22.4015 28.5005 22.4664 28.6753 22.7906 28.6753C23.1148 28.6753 23.1797 28.5005 23.1797 28.2849C23.1797 28.0693 23.05 27.8945 22.7906 27.8945C22.5312 27.8945 22.4015 28.0693 22.4015 28.2849Z" fill="white"/>
<path d="M17.875 30.5093C17.7964 30.3947 17.6399 30.3655 17.5253 30.444C17.4107 30.5225 17.3815 30.679 17.46 30.7936L17.6675 30.6515L17.875 30.5093ZM19.3174 30.2L19.5554 30.1184C19.5205 30.0168 19.4249 29.9484 19.3174 29.9484C19.21 29.9484 19.1144 30.0168 19.0795 30.1184L19.3174 30.2ZM21.1749 30.7936C21.2534 30.679 21.2242 30.5225 21.1096 30.444C20.995 30.3655 20.8385 30.3947 20.7599 30.5093L20.9674 30.6515L21.1749 30.7936ZM17.6675 30.6515L17.46 30.7936C17.5295 30.895 17.6557 31.031 17.8249 31.1432C17.9957 31.2565 18.2239 31.3545 18.4925 31.3545V31.103V30.8515C18.3485 30.8515 18.2158 30.7989 18.103 30.7241C17.9886 30.6482 17.9086 30.5584 17.875 30.5093L17.6675 30.6515ZM18.4925 31.103V31.3545C18.823 31.3545 19.0688 31.1187 19.2218 30.9157C19.3834 30.7014 19.4975 30.4503 19.5554 30.2815L19.3174 30.2L19.0795 30.1184C19.0342 30.2506 18.9422 30.451 18.8201 30.613C18.6895 30.7862 18.5744 30.8515 18.4925 30.8515V31.103ZM19.3174 30.2L19.0795 30.2815C19.1374 30.4503 19.2515 30.7014 19.4131 30.9157C19.5661 31.1187 19.8119 31.3545 20.1424 31.3545V31.103V30.8515C20.0605 30.8515 19.9454 30.7862 19.8148 30.613C19.6927 30.451 19.6006 30.2506 19.5554 30.1184L19.3174 30.2ZM20.1424 31.103V31.3545C20.411 31.3545 20.6392 31.2565 20.81 31.1432C20.9792 31.031 21.1054 30.895 21.1749 30.7936L20.9674 30.6515L20.7599 30.5093C20.7263 30.5584 20.6463 30.6482 20.5319 30.7241C20.4191 30.7989 20.2863 30.8515 20.1424 30.8515V31.103Z" fill="#222327"/>
<path d="M20.6903 29.9678C20.6903 30.177 19.7483 30.4433 19.4313 30.527C19.3635 30.5449 19.2936 30.5449 19.2259 30.527C18.9088 30.4433 17.9668 30.177 17.9668 29.9678C17.9668 29.7162 18.7197 29.4473 19.3286 29.4473C19.9374 29.4473 20.6903 29.7162 20.6903 29.9678Z" fill="#222327"/>
<path d="M19.166 23.2765C15.3818 23.2765 13.9911 21.9471 13.7661 21.1695L15.5661 19.2129L19.466 18.5356L24.8659 21.1695C24.5409 21.7966 22.9544 23.2765 19.166 23.2765Z" fill="#222327"/>
<path d="M19.6895 16.353C27.5093 16.353 33.2429 21.9485 33.2432 29.3657C33.2432 35.295 27.5095 37.4995 19.6895 37.4995C11.8696 37.4994 6.2666 35.2949 6.2666 29.3657C6.26685 22.469 11.8698 16.3532 19.6895 16.353ZM19.3828 19.7368C13.6307 19.7368 9.5089 24.2155 9.50879 29.2661C9.50879 33.6082 13.6306 35.2222 19.3828 35.2222C25.1348 35.2221 29.3516 33.608 29.3516 29.2661C29.3515 23.8345 25.1347 19.737 19.3828 19.7368Z" fill="white"/>
<path d="M70.8926 22.652H73.9685V26.2406H70.8926V33.5204H66.2786V29.009C62.9976 29.6754 59.7422 30.0343 55.0001 30.0343H49.6171V26.5226H51.6678V19.2428H50.1298V15.7823H64.2792V19.2428H62.7413V26.1381C63.9973 25.9843 65.1764 25.8048 66.2786 25.5998V15.526H70.8926V22.652ZM52.1548 39.621V32.008H56.8713V36.0581H71.4052V39.621H52.1548ZM56.2817 26.5226C56.9225 26.4969 57.5377 26.4969 58.1273 26.4713V19.2428H56.2817V26.5226ZM99.6016 24.4463V28.0349H96.5256V39.621H91.9117V35.5967C88.6306 36.5451 85.3752 37.0834 80.6331 37.0834H76.0192V16.295H89.1433V19.7554H80.6331V33.5716C85.324 33.5716 88.6563 33.1103 91.9117 32.1875V15.526H96.5256V24.4463H99.6016ZM125.235 24.4463V28.0349H122.159V39.621H117.545V15.526H122.159V24.4463H125.235ZM101.652 37.0834V16.295H115.058V37.0834H101.652ZM106.266 33.5716H110.496V19.8067H106.266V33.5716ZM144.844 15.526H149.33V29.4191H144.844V15.526ZM125.747 26.6764C128.746 26.0612 131.002 25.1127 132.258 23.908L127.285 24.2156V20.8833H133.335V19.2428H127.798V15.7823H137.821V20.3962H139.282V15.6541H143.639V29.4191H139.282V23.9849H137.154C135.795 26.6251 132.386 28.8039 127.208 30.1112L125.747 26.6764ZM128.541 35.9555C134.873 35.7248 136.718 34.4175 136.718 32.1875V30.2393H141.332V32.5976C141.332 33.2128 141.255 33.8023 141.102 34.3406C144.075 34.5457 147.023 34.9558 149.33 35.4941L148.099 39.621C145.459 38.6983 141.768 37.8011 138.795 37.3141C136.667 38.7495 133.258 39.4416 129.028 39.621L128.541 35.9555Z" fill="#3692FF"/>
</svg>
