<svg width="16" height="16" viewBox="0 0 16 16" fill="none" xmlns="http://www.w3.org/2000/svg">
<path d="M10.5996 2.59961C12.5316 2.59961 14.0752 4.1317 14.1328 6.08398V6.2002C14.1328 7.24212 13.7292 8.14487 13.0605 8.75781L12.8662 8.93652V8.98047C12.7653 9.06604 12.6349 9.17783 12.4834 9.30957C12.1463 9.60273 11.6947 10.0004 11.2031 10.4336C10.2213 11.2989 9.07929 12.3083 8.34863 12.9395C8.17222 13.0862 7.89819 13.0865 7.7207 12.9414C6.9885 12.309 5.82531 11.2963 4.83594 10.4316C4.34035 9.99852 3.88849 9.6028 3.55664 9.31152C3.4065 9.17974 3.28705 9.07349 3.19922 8.99609V8.95117L3.02441 8.77539C2.33065 8.08163 1.93267 7.16559 1.93262 6.2002V6.08496C1.9894 4.21111 3.58908 2.66699 5.4668 2.66699C5.74497 2.6671 6.11367 2.76392 6.48145 2.96191C6.83335 3.1514 7.14139 3.41108 7.34375 3.7002C7.64054 4.30642 8.51627 4.29878 8.79883 3.67773C8.96409 3.37509 9.2637 3.10098 9.625 2.89941C9.99259 2.69441 10.3593 2.59963 10.5996 2.59961Z" stroke="#6B7280" stroke-width="1.2"/>
</svg>
