<svg width="196" height="196" viewBox="0 0 196 196" fill="none" xmlns="http://www.w3.org/2000/svg">
<path d="M86.0461 52.3367C89.226 60.5517 83.5635 70.401 76.3343 73.1994C69.1051 75.9977 58.5844 72.4126 55.4045 64.1976C52.2246 55.9826 56.346 43.8586 63.5752 41.0603C73.2149 37.3289 82.8663 44.1217 86.0461 52.3367Z" fill="#D1D5DB"/>
<path d="M90.1223 51.9826C88.4082 60.6232 95.6859 69.3472 103.29 70.8556C110.893 72.364 120.637 67.0167 122.351 58.3761C124.065 49.7355 117.913 38.505 110.309 36.9966C100.17 34.9852 91.8364 43.342 90.1223 51.9826Z" fill="#D1D5DB"/>
<path d="M164.865 114.979C164.865 144.048 136.663 154.854 98.194 154.854C59.7246 154.854 32.1606 144.048 32.1606 114.979C32.1606 81.1644 59.7246 51.1782 98.194 51.1782C136.663 51.1782 164.865 78.6124 164.865 114.979Z" fill="#F3F4F6"/>
<path d="M146.761 114.644C146.761 135.954 127.003 143.876 100.051 143.876C73.0991 143.876 53.7876 135.954 53.7876 114.644C53.7876 89.8555 73.0991 67.8733 100.051 67.8733C127.003 67.8733 146.761 87.9847 146.761 114.644Z" fill="#F9FAFB"/>
<path d="M97.5077 111.671C97.5077 118.718 93.2105 126.449 87.2053 126.449C81.2002 126.449 71.4995 120.707 71.4995 110.18C71.4995 100.291 81.9791 96.7739 92.8081 98.5798C99.4452 99.6866 97.5077 104.624 97.5077 111.671Z" fill="#D1D5DB"/>
<path d="M92.4853 110.959C92.4853 112.016 92.1832 112.873 90.6731 112.873C89.1629 112.873 88.8608 112.016 88.8608 110.959C88.8608 109.902 89.4649 109.045 90.6731 109.045C91.8812 109.045 92.4853 109.902 92.4853 110.959Z" fill="#F3F4F6"/>
<path d="M115.278 111.671C115.278 118.718 119.261 126.449 124.827 126.449C130.393 126.449 139.385 120.707 139.385 110.18C139.385 100.291 129.671 96.7741 119.634 98.58C113.483 99.6868 115.278 104.624 115.278 111.671Z" fill="#D1D5DB"/>
<path d="M119.935 110.959C119.935 112.016 120.215 112.873 121.614 112.873C123.014 112.873 123.294 112.016 123.294 110.959C123.294 109.902 122.734 109.045 121.614 109.045C120.494 109.045 119.935 109.902 119.935 110.959Z" fill="#F3F4F6"/>
<path d="M99.7133 121.936C99.367 121.432 98.6779 121.304 98.1742 121.651C97.6705 121.997 97.5429 122.686 97.8892 123.19L99.7133 121.936ZM106.918 120.349L107.965 119.989C107.811 119.542 107.391 119.242 106.918 119.242C106.445 119.242 106.025 119.542 105.871 119.989L106.918 120.349ZM115.947 123.19C116.293 122.686 116.166 121.997 115.662 121.651C115.158 121.304 114.469 121.432 114.123 121.936L115.947 123.19ZM97.8892 123.19C98.222 123.674 98.8311 124.329 99.6493 124.87C100.474 125.415 101.572 125.883 102.86 125.883V123.67C102.118 123.67 101.44 123.4 100.87 123.023C100.293 122.642 99.8878 122.19 99.7133 121.936L97.8892 123.19ZM102.86 125.883C104.419 125.883 105.595 124.772 106.342 123.784C107.127 122.746 107.683 121.528 107.965 120.709L105.871 119.989C105.646 120.646 105.187 121.642 104.577 122.449C103.929 123.305 103.329 123.67 102.86 123.67V125.883ZM105.871 120.709C106.153 121.528 106.709 122.746 107.494 123.784C108.241 124.772 109.417 125.883 110.976 125.883V123.67C110.507 123.67 109.907 123.305 109.259 122.449C108.649 121.642 108.191 120.646 107.965 119.989L105.871 120.709ZM110.976 125.883C112.264 125.883 113.362 125.415 114.187 124.87C115.005 124.329 115.614 123.674 115.947 123.19L114.123 121.936C113.948 122.19 113.543 122.642 112.966 123.023C112.396 123.4 111.718 123.67 110.976 123.67V125.883Z" fill="#D1D5DB"/>
<path d="M113.675 119.211C113.675 120.249 108.934 121.573 107.429 121.967C107.131 122.045 106.821 122.045 106.524 121.967C105.019 121.573 100.277 120.249 100.277 119.211C100.277 117.978 103.981 116.659 106.976 116.659C109.971 116.659 113.675 117.978 113.675 119.211Z" fill="#D1D5DB"/>
<path d="M107.959 85.351C79.4856 87.1412 72.5407 78.052 71.499 74.217L87.4721 65.3097L105.529 61.9695L130.53 74.9592C129.025 78.052 125.469 84.2502 107.959 85.351Z" fill="#D1D5DB"/>
<path fill-rule="evenodd" clip-rule="evenodd" d="M101.648 154.946C138.126 154.946 164.868 144.14 164.868 115.071C164.868 78.7044 138.126 51.2703 101.648 51.2703C65.1699 51.2703 39.0327 81.2564 39.0327 115.071C39.0327 144.14 65.1699 154.946 101.648 154.946ZM100.214 143.781C127.047 143.781 146.717 135.868 146.717 114.58C146.717 87.949 127.047 67.8588 100.214 67.8588C73.3817 67.8588 54.1558 89.8179 54.1558 114.58C54.1558 135.868 73.3817 143.781 100.214 143.781Z" fill="#F3F4F6"/>
<path fill-rule="evenodd" clip-rule="evenodd" d="M24.1065 91.173C28.1518 86.6433 35.4429 87.3947 38.4795 92.6541L42.9266 100.357C45.9631 105.616 42.9683 112.306 37.0229 113.545L35.0892 113.948C34.9785 113.971 34.8678 113.991 34.757 114.01C34.7153 114.125 34.6623 114.237 34.6001 114.344C32.8394 117.371 32.0011 124.344 40.6765 132.414C49.1296 140.277 56.4369 140.849 59.8006 140.009C60.0392 139.95 60.2871 139.933 60.5262 139.963L60.9665 139.09C63.7016 133.668 70.9387 132.507 75.233 136.801L81.5222 143.09C85.8165 147.384 84.6552 154.621 79.2329 157.357L78.8262 157.562C78.7148 157.738 78.5559 157.892 78.3494 158.004C67.6399 163.816 43.5652 161.006 30.3966 142.694C13.9143 119.773 15.5748 100.285 22.0736 93.3312C22.1843 93.2127 22.3105 93.1216 22.4454 93.057C22.5559 92.9173 22.671 92.7803 22.7908 92.6461L24.1065 91.173Z" fill="#D1D5DB"/>
<path d="M151.65 49.4414C153.418 45.4228 154.988 44.6468 157.407 44.2838C159.277 43.9966 160.816 43.5634 161.458 42.102C162.101 40.6407 161.348 39.1995 159.92 38.5713C158.525 37.9578 156.791 38.3844 156.028 40.0304L150.747 37.7077C152.961 32.8547 157.545 32.255 161.896 34.1687C166.712 36.2869 169.176 40.1456 167.321 44.3636C166.094 47.1534 163.84 48.223 161.03 48.5728C158.769 48.8467 157.468 49.4633 156.533 51.5889L156.328 52.0538L151.446 49.9064L151.65 49.4414ZM150.596 58.6887C148.935 57.9582 148.158 56.0308 148.936 54.3516C149.618 52.7096 151.564 51.9801 153.225 52.7105C154.819 53.4117 155.63 55.3537 154.947 56.9957C154.169 58.6749 152.19 59.3898 150.596 58.6887Z" fill="#D1D5DB"/>
<path d="M167.617 61.1126C169.952 58.7029 171.283 58.5642 173.113 58.9472C174.53 59.2387 175.747 59.3372 176.596 58.4609C177.445 57.5846 177.289 56.3516 176.432 55.5218C175.596 54.7113 174.24 54.5561 173.255 55.5326L170.089 52.4643C172.965 49.5754 176.41 50.3644 179.019 52.8923C181.907 55.6905 182.647 59.1108 180.196 61.64C178.575 63.3129 176.675 63.4801 174.569 62.9838C172.876 62.579 171.779 62.6748 170.544 63.9494L170.274 64.2282L167.347 61.3914L167.617 61.1126ZM164.403 67.4585C163.407 66.4936 163.362 64.9058 164.366 63.9094C165.292 62.9143 166.88 62.9089 167.876 63.8737C168.832 64.8 168.897 66.4071 167.971 67.4023C166.967 68.3987 165.359 68.3848 164.403 67.4585Z" fill="#D1D5DB"/>
</svg>
