<svg width="744" height="397" viewBox="0 0 744 397" fill="none" xmlns="http://www.w3.org/2000/svg">
<g clip-path="url(#clip0_37372_2210)">
<ellipse cx="371" cy="404.742" rx="373" ry="202.153" fill="#E3A578"/>
<ellipse cx="371" cy="404.742" rx="373" ry="202.153" fill="url(#paint0_linear_37372_2210)"/>
<path d="M214.788 309.368C206.101 311.039 201.562 304.774 200.17 302.268L217.712 285.144L227.736 294.75C229.407 298.509 226.483 307.119 214.788 309.368Z" fill="white"/>
<path d="M163.618 72.6588C168.093 84.2188 160.124 98.0785 149.951 102.016C139.779 105.954 124.974 100.909 120.499 89.3492C116.025 77.7892 121.824 60.7285 131.997 56.7908C145.562 51.54 159.143 61.0987 163.618 72.6588Z" fill="#222327"/>
<path d="M169.354 72.1597C166.942 84.3186 177.183 96.5949 187.883 98.7175C198.582 100.84 212.294 93.3155 214.706 81.1566C217.118 68.9977 208.461 53.1942 197.761 51.0716C183.493 48.2412 171.766 60.0008 169.354 72.1597Z" fill="#222327"/>
<path d="M274.535 160.807C274.535 201.714 234.849 216.919 180.716 216.919C126.582 216.919 87.7949 201.714 87.7949 160.807C87.7949 113.225 126.582 71.0286 180.716 71.0286C234.849 71.0286 274.535 109.633 274.535 160.807Z" fill="white"/>
<path d="M143.146 264.486C143.146 247.053 148.748 220.749 153.732 209.776H223.23C228.068 219.513 232.777 244.086 232.425 264.486C231.986 289.986 208.676 291.84 187.126 292.767C165.576 293.695 143.146 286.277 143.146 264.486Z" fill="white"/>
<rect x="205.584" y="216.682" width="37.3803" height="47.6311" rx="18.6902" transform="rotate(-21.5019 205.584 216.682)" fill="#222327"/>
<path d="M204.292 303.553C194.194 300.973 187.211 300.855 170.872 285.642L200.488 267.911C203.99 264.024 212.696 257.45 219.503 262.247C228.011 268.243 234.133 280.399 233.706 283.095C233.364 285.251 228.91 289.64 226.726 291.565L217.61 298.274C216.196 302.528 213.41 305.884 204.292 303.553Z" fill="white"/>
<path d="M230.12 275.558C237.799 284.835 236.488 289.29 234.038 292.684L227.88 284.822C227.269 281.415 226.148 270.759 230.12 275.558Z" fill="white"/>
<path d="M215.399 289.305C214.568 290.551 197.574 299.515 193.594 301.246C194.113 302.284 201.197 301.402 206.054 299.169C211.554 296.64 216.437 287.747 215.399 289.305Z" fill="#F2F2F2"/>
<path d="M154.313 273.459C160.121 265.076 162.69 258.651 181.676 249.243L186.622 283.357C188.762 288.064 191.399 298.604 184.827 303.104C176.613 308.729 163.89 309.822 161.7 308.411C159.948 307.282 157.707 301.504 156.806 298.756L154.196 287.784C151 284.873 149.068 281.028 154.313 273.459Z" fill="white"/>
<path d="M167.717 309.281C156.232 312.9 151.406 310.061 147.468 301.586L159.979 303.717C163.365 304.433 173.659 307.408 167.717 309.281Z" fill="white"/>
<path d="M211.137 277.008C216.68 296.559 205.704 302.081 161.187 310.921L163.449 291.816L184.824 277.008C198.193 269.36 208.536 267.829 211.137 277.008Z" fill="white"/>
<path d="M165.032 310.447C157.935 313.745 150.468 311.176 145.103 299.631C139.738 288.086 140.094 278.705 147.191 275.406C154.289 272.108 161.646 270.89 168.953 286.615C174.318 298.16 176.011 305.345 165.032 310.447Z" fill="white"/>
<path d="M159.005 305.609C155.735 306.698 150.648 302.869 149.043 298.05C147.14 292.338 147.599 287.76 151.828 286.352C155.62 285.089 161.471 285.094 164.062 292.875C165.965 298.587 164.579 303.752 159.005 305.609Z" fill="#222327"/>
<path fill-rule="evenodd" clip-rule="evenodd" d="M143.064 263.729C152.934 265.964 165.838 267.382 182.234 266.884C202.064 266.282 218.861 263.799 231.931 260.886C231.698 243.115 228.035 223.197 223.979 212.89C212.907 215.636 200.262 216.885 186.57 216.885C174.061 216.885 162.481 215.842 152.2 213.569C147.75 225.63 143.27 247.961 143.064 263.729Z" fill="#222327"/>
<path d="M203.05 243.002C205.43 221.624 216.292 215.582 226.502 212.64C230.656 211.444 237.405 211.602 241.039 213.16C245.438 215.045 250.384 218.871 254.018 227.696C257.652 236.522 262.236 249.751 264.312 263.249L264.34 263.43C266.418 276.932 269.586 297.515 228.237 297.515C194.169 297.515 200.884 262.461 203.05 243.002Z" fill="#3786E2"/>
<path d="M220.936 256.796C211.058 251.335 207.478 238.901 212.939 229.023L213.362 228.257C217.924 220.006 227.541 215.951 236.633 218.445C249.273 221.913 255.419 236.223 249.23 247.777L247.864 250.328C242.87 259.361 231.498 262.636 222.464 257.641L220.936 256.796Z" fill="#222327"/>
<path d="M231.635 271.404C232.184 272.856 231.173 274.584 229.894 275.068C228.616 275.551 226.767 274.904 226.218 273.452C225.669 272 226.412 269.868 227.69 269.385C229.394 268.741 231.086 269.952 231.635 271.404Z" fill="#2D68AE"/>
<path d="M238.373 270.566C238.059 272.086 239.33 273.634 240.668 273.91C242.006 274.187 243.731 273.258 244.045 271.737C244.359 270.216 243.29 268.228 241.952 267.952C240.168 267.583 238.687 269.045 238.373 270.566Z" fill="#2D68AE"/>
<path d="M245.825 278.26C246.175 282.683 241.986 284.668 236.094 285.134C230.202 285.6 225.851 284.289 225.501 279.866C225.094 274.722 228.009 270.358 234.883 269.815C241.757 269.271 245.388 272.727 245.825 278.26Z" fill="#2D68AE"/>
<path d="M234.144 277.85C234.246 279.133 233.563 280.604 232.454 280.691C231.344 280.779 229.47 279.875 229.318 277.958C229.176 276.158 231.061 275.365 233.088 275.535C234.33 275.64 234.043 276.567 234.144 277.85Z" fill="#3475C2"/>
<path d="M232.054 277.823C232.074 278.074 232.165 278.272 232.545 278.242C232.924 278.212 232.984 278.002 232.964 277.751C232.944 277.499 232.776 277.308 232.473 277.332C232.169 277.356 232.034 277.571 232.054 277.823Z" fill="white"/>
<path d="M236.972 277.625C237.074 278.909 237.979 280.253 239.088 280.166C240.198 280.078 241.907 278.891 241.756 276.974C241.613 275.174 239.626 274.686 237.652 275.173C236.442 275.472 236.871 276.342 236.972 277.625Z" fill="#3475C2"/>
<path d="M239.032 277.271C239.052 277.522 238.992 277.732 238.613 277.762C238.234 277.792 238.142 277.594 238.122 277.343C238.102 277.091 238.238 276.876 238.541 276.852C238.844 276.828 239.012 277.019 239.032 277.271Z" fill="white"/>
<path d="M249.06 160.335C249.06 190.322 221.256 201.469 183.33 201.469C145.403 201.469 118.229 190.322 118.229 160.335C118.229 125.453 145.403 94.5198 183.33 94.5198C221.256 94.5198 249.06 122.82 249.06 160.335Z" fill="#F3D6DD"/>
<path d="M179.747 156.154C179.747 166.071 173.7 176.95 165.249 176.95C156.799 176.95 143.148 168.87 143.148 154.056C143.148 140.141 157.895 135.191 173.133 137.733C182.473 139.29 179.747 146.238 179.747 156.154Z" fill="#222327"/>
<path d="M172.676 155.152C172.676 156.639 172.251 157.845 170.126 157.845C168.001 157.845 167.576 156.639 167.576 155.152C167.576 153.664 168.426 152.458 170.126 152.458C171.826 152.458 172.676 153.664 172.676 155.152Z" fill="white"/>
<path d="M204.754 156.154C204.754 166.071 210.359 176.95 218.191 176.95C226.023 176.95 238.676 168.87 238.676 154.056C238.676 140.141 225.007 135.191 210.883 137.733C202.227 139.29 204.754 146.238 204.754 156.154Z" fill="#222327"/>
<path d="M211.306 155.152C211.306 156.639 211.7 157.845 213.67 157.845C215.639 157.845 216.033 156.639 216.033 155.152C216.033 153.664 215.245 152.458 213.67 152.458C212.094 152.458 211.306 153.664 211.306 155.152Z" fill="white"/>
<path d="M183.105 170.422C182.521 169.574 181.361 169.359 180.512 169.942C179.663 170.525 179.449 171.686 180.032 172.535L183.105 170.422ZM192.99 168.364L194.753 167.757C194.495 167.005 193.786 166.499 192.99 166.499C192.194 166.499 191.486 167.005 191.227 167.757L192.99 168.364ZM205.948 172.535C206.532 171.686 206.317 170.525 205.468 169.942C204.62 169.359 203.459 169.574 202.875 170.422L205.948 172.535ZM180.032 172.535C180.522 173.248 181.407 174.197 182.592 174.981C183.789 175.772 185.391 176.458 187.279 176.458V172.729C186.312 172.729 185.416 172.377 184.649 171.87C183.871 171.356 183.328 170.747 183.105 170.422L180.032 172.535ZM187.279 176.458C189.625 176.458 191.359 174.791 192.425 173.382C193.553 171.89 194.35 170.145 194.753 168.97L191.227 167.757C190.917 168.659 190.285 170.029 189.451 171.133C188.553 172.319 187.788 172.729 187.279 172.729V176.458ZM191.227 168.97C191.631 170.145 192.427 171.89 193.555 173.382C194.621 174.791 196.355 176.458 198.701 176.458V172.729C198.192 172.729 197.427 172.319 196.53 171.133C195.695 170.029 195.063 168.659 194.753 167.757L191.227 168.97ZM198.701 176.458C200.589 176.458 202.191 175.772 203.388 174.981C204.573 174.197 205.458 173.248 205.948 172.535L202.875 170.422C202.652 170.747 202.109 171.356 201.331 171.87C200.565 172.377 199.668 172.729 198.701 172.729V176.458Z" fill="#222327"/>
<path d="M202.498 166.763C202.498 168.196 196.071 170.017 193.83 170.609C193.33 170.741 192.813 170.741 192.312 170.609C190.072 170.017 183.645 168.196 183.645 166.763C183.645 165.028 188.857 163.172 193.071 163.172C197.286 163.172 202.498 165.028 202.498 166.763Z" fill="#222327"/>
<path d="M194.455 119.115C154.387 121.635 144.614 108.844 143.148 103.448L165.625 90.9137L191.034 86.2134L226.216 104.492C224.098 108.844 219.094 117.566 194.455 119.115Z" fill="#222327"/>
<path fill-rule="evenodd" clip-rule="evenodd" d="M185.572 217.048C236.903 217.048 274.534 201.842 274.534 160.936C274.534 109.762 236.903 71.1575 185.572 71.1575C134.241 71.1575 97.4609 113.353 97.4609 160.936C97.4609 201.842 134.241 217.048 185.572 217.048ZM183.557 201.337C221.315 201.337 248.995 190.202 248.995 160.246C248.995 122.771 221.315 94.5002 183.557 94.5002C145.798 94.5002 118.744 125.401 118.744 160.246C118.744 190.202 145.798 201.337 183.557 201.337Z" fill="white"/>
<path d="M127.053 195.239C136.267 209.05 148.858 213.41 157.684 216.006L178.649 244.331C178.303 247.792 166.559 262.71 123.364 246.927C74.0424 228.906 81.6129 185.368 95.0621 179.435C112.714 171.647 120.625 185.604 127.053 195.239Z" fill="#222327"/>
<rect x="164.379" y="222.236" width="5.19171" height="15.5751" rx="2.59585" fill="white"/>
<path fill-rule="evenodd" clip-rule="evenodd" d="M164.379 234.695V235.214C164.379 236.648 165.541 237.81 166.975 237.81C168.408 237.81 169.571 236.648 169.571 235.214V234.695H164.379Z" fill="#256FC5"/>
<rect x="188.834" y="222.236" width="5.19171" height="15.5751" rx="2.59585" fill="white"/>
<path fill-rule="evenodd" clip-rule="evenodd" d="M188.834 234.695V235.214C188.834 236.648 189.996 237.81 191.43 237.81C192.863 237.81 194.026 236.648 194.026 235.214V234.695H188.834Z" fill="#256FC5"/>
<path d="M150.023 281.057C150.752 280.786 151.65 281.392 152.029 282.41C152.407 283.428 152.714 284.254 151.394 284.745C150.074 285.235 149.767 284.41 149.389 283.391C149.01 282.373 149.294 281.328 150.023 281.057Z" fill="#222327"/>
<path d="M146.327 282.96C146.979 282.537 147.987 282.933 148.578 283.844C149.169 284.756 149.649 285.495 148.467 286.261C147.285 287.027 146.806 286.288 146.215 285.376C145.624 284.465 145.674 283.383 146.327 282.96Z" fill="#222327"/>
<path d="M154.454 279.984C153.676 280.012 153.078 280.915 153.118 282.001C153.157 283.087 153.189 283.967 154.597 283.916C156.004 283.865 155.972 282.984 155.932 281.899C155.893 280.813 155.231 279.956 154.454 279.984Z" fill="#222327"/>
<path d="M532.344 324.405C541.032 326.075 545.571 319.81 546.963 317.304L529.421 300.18L519.397 309.786C517.726 313.545 520.65 322.156 532.344 324.405Z" fill="white"/>
<path d="M583.515 87.6949C579.04 99.2549 587.009 113.115 597.181 117.052C607.354 120.99 622.159 115.945 626.633 104.385C631.108 92.8253 625.308 75.7646 615.136 71.8269C601.571 66.5762 587.99 76.1349 583.515 87.6949Z" fill="#222327"/>
<path d="M577.779 87.1958C580.191 99.3548 569.95 111.631 559.25 113.754C548.55 115.876 534.839 108.352 532.427 96.1927C530.015 84.0338 538.672 68.2304 549.372 66.1078C563.64 63.2774 575.367 75.0369 577.779 87.1958Z" fill="#222327"/>
<path d="M472.6 175.843C472.6 216.749 512.286 231.955 566.419 231.955C620.552 231.955 659.34 216.749 659.34 175.843C659.34 128.26 620.552 86.0645 566.419 86.0645C512.286 86.0645 472.6 124.669 472.6 175.843Z" fill="white"/>
<path d="M603.984 279.521C603.984 262.088 598.383 235.784 593.399 224.812H523.901C519.063 234.548 514.354 259.121 514.706 279.521C515.145 305.021 538.455 306.875 560.005 307.803C581.555 308.73 603.984 301.312 603.984 279.521Z" fill="white"/>
<rect width="37.3803" height="47.6311" rx="18.6902" transform="matrix(-0.930405 -0.366532 -0.366532 0.930405 541.551 231.718)" fill="#222327"/>
<path d="M542.841 318.59C552.938 316.009 559.922 315.891 576.261 300.679L546.645 282.947C543.143 279.06 534.437 272.486 527.63 277.283C519.122 283.279 512.999 295.436 513.427 298.131C513.769 300.287 518.223 304.676 520.407 306.601L529.523 313.31C530.936 317.564 533.723 320.92 542.841 318.59Z" fill="white"/>
<path d="M517.012 290.595C509.334 299.872 510.644 304.326 513.095 307.72L519.253 299.858C519.864 296.452 520.985 285.795 517.012 290.595Z" fill="white"/>
<path d="M531.734 304.341C532.565 305.587 549.559 314.551 553.539 316.282C553.02 317.32 545.935 316.438 541.079 314.205C535.579 311.676 530.696 302.783 531.734 304.341Z" fill="#F2F2F2"/>
<path d="M592.822 288.494C587.014 280.111 584.445 273.686 565.459 264.278L560.513 298.392C558.373 303.099 555.736 313.64 562.307 318.139C570.521 323.764 583.244 324.858 585.435 323.447C587.187 322.318 589.427 316.539 590.328 313.791L592.938 302.819C596.135 299.908 598.066 296.063 592.822 288.494Z" fill="white"/>
<path d="M579.418 324.317C590.903 327.937 595.729 325.097 599.667 316.622L587.156 318.753C583.77 319.469 573.476 322.444 579.418 324.317Z" fill="white"/>
<path d="M535.997 292.044C530.455 311.595 541.431 317.117 585.948 325.958L583.686 306.852L562.311 292.044C548.942 284.397 538.599 282.866 535.997 292.044Z" fill="white"/>
<path d="M582.102 325.483C589.2 328.781 596.667 326.212 602.032 314.667C607.397 303.122 607.041 293.741 599.943 290.442C592.846 287.144 585.489 285.926 578.182 301.651C572.816 313.196 571.124 320.381 582.102 325.483Z" fill="white"/>
<path d="M588.13 320.645C591.4 321.734 596.487 317.905 598.092 313.086C599.995 307.374 599.536 302.796 595.307 301.387C591.515 300.124 585.664 300.13 583.072 307.911C581.17 313.623 582.556 318.788 588.13 320.645Z" fill="#222327"/>
<path fill-rule="evenodd" clip-rule="evenodd" d="M604.07 278.765C594.201 281 581.296 282.418 564.9 281.92C545.071 281.319 528.274 278.836 515.204 275.922C515.437 258.152 519.1 238.233 523.155 227.927C534.228 230.672 546.873 231.922 560.565 231.922C573.074 231.922 584.654 230.879 594.935 228.605C599.384 240.666 603.865 262.997 604.07 278.765Z" fill="#222327"/>
<path d="M544.084 258.038C541.705 236.661 530.843 230.619 520.633 227.677C516.479 226.48 509.73 226.638 506.096 228.196C501.696 230.081 496.751 233.907 493.117 242.733C489.482 251.558 484.899 264.787 482.822 278.286L482.795 278.466C480.717 291.968 477.549 312.551 518.898 312.551C552.966 312.551 546.25 277.497 544.084 258.038Z" fill="#3786E2"/>
<path d="M526.197 271.831C536.075 266.37 539.655 253.936 534.194 244.058L533.77 243.292C529.209 235.041 519.592 230.987 510.5 233.48C497.859 236.948 491.714 251.258 497.903 262.812L499.269 265.363C504.263 274.396 515.635 277.671 524.669 272.676L526.197 271.831Z" fill="#222327"/>
<path d="M515.5 286.44C514.951 287.892 515.962 289.621 517.24 290.104C518.518 290.587 520.368 289.941 520.917 288.488C521.466 287.036 520.723 284.905 519.445 284.421C517.741 283.777 516.049 284.988 515.5 286.44Z" fill="#2D68AE"/>
<path d="M508.76 285.602C509.074 287.122 507.803 288.67 506.465 288.946C505.127 289.223 503.402 288.294 503.088 286.773C502.774 285.253 503.843 283.265 505.181 282.988C506.965 282.62 508.446 284.081 508.76 285.602Z" fill="#2D68AE"/>
<path d="M501.307 293.296C500.958 297.719 505.147 299.704 511.039 300.17C516.931 300.636 521.282 299.325 521.632 294.903C522.039 289.758 519.124 285.394 512.25 284.851C505.376 284.307 501.745 287.763 501.307 293.296Z" fill="#2D68AE"/>
<path d="M512.988 292.886C512.887 294.169 513.57 295.64 514.679 295.727C515.788 295.815 517.663 294.911 517.815 292.995C517.957 291.194 516.072 290.401 514.045 290.571C512.803 290.676 513.09 291.603 512.988 292.886Z" fill="#3475C2"/>
<path d="M515.077 292.859C515.057 293.11 514.965 293.308 514.586 293.278C514.207 293.248 514.147 293.038 514.167 292.787C514.187 292.536 514.355 292.344 514.658 292.368C514.961 292.392 515.097 292.607 515.077 292.859Z" fill="white"/>
<path d="M510.161 292.662C510.059 293.945 509.154 295.289 508.045 295.202C506.935 295.114 505.226 293.927 505.377 292.01C505.52 290.21 507.506 289.722 509.481 290.209C510.691 290.508 510.262 291.378 510.161 292.662Z" fill="#3475C2"/>
<path d="M508.101 292.307C508.081 292.558 508.141 292.768 508.52 292.798C508.899 292.828 508.991 292.63 509.011 292.379C509.031 292.128 508.895 291.912 508.592 291.888C508.289 291.864 508.121 292.056 508.101 292.307Z" fill="white"/>
<path d="M498.075 175.372C498.075 205.359 525.879 216.506 563.805 216.506C601.731 216.506 628.906 205.359 628.906 175.372C628.906 140.49 601.731 109.557 563.805 109.557C525.879 109.557 498.075 137.857 498.075 175.372Z" fill="#F3D6DD"/>
<path d="M567.388 171.19C567.388 181.107 573.435 191.986 581.885 191.986C590.336 191.986 603.986 183.906 603.986 169.092C603.986 155.176 589.24 150.227 574.001 152.768C564.662 154.326 567.388 161.273 567.388 171.19Z" fill="#222327"/>
<path d="M542.381 171.19C542.381 181.107 536.776 191.986 528.944 191.986C521.111 191.986 508.459 183.906 508.459 169.092C508.459 155.176 522.127 150.227 536.251 152.768C544.908 154.326 542.381 161.273 542.381 171.19Z" fill="#222327"/>
<path d="M564.032 185.458C564.615 184.61 565.776 184.395 566.625 184.978C567.473 185.561 567.688 186.722 567.105 187.571L564.032 185.458ZM554.147 183.399L552.383 182.793C552.642 182.04 553.35 181.535 554.147 181.535C554.943 181.535 555.651 182.04 555.91 182.793L554.147 183.399ZM541.188 187.571C540.605 186.722 540.82 185.561 541.669 184.978C542.517 184.395 543.678 184.61 544.261 185.458L541.188 187.571ZM567.105 187.571C566.615 188.284 565.729 189.233 564.544 190.017C563.348 190.808 561.746 191.494 559.857 191.494V187.765C560.825 187.765 561.721 187.413 562.488 186.906C563.266 186.392 563.808 185.783 564.032 185.458L567.105 187.571ZM559.857 191.494C557.511 191.494 555.778 189.827 554.712 188.418C553.583 186.926 552.787 185.18 552.383 184.006L555.91 182.793C556.22 183.695 556.851 185.065 557.686 186.169C558.583 187.355 559.348 187.765 559.857 187.765V191.494ZM555.91 184.006C555.506 185.18 554.71 186.926 553.581 188.418C552.516 189.827 550.782 191.494 548.436 191.494V187.765C548.945 187.765 549.71 187.355 550.607 186.169C551.442 185.065 552.073 183.695 552.383 182.793L555.91 184.006ZM548.436 191.494C546.548 191.494 544.945 190.808 543.749 190.017C542.564 189.233 541.679 188.284 541.188 187.571L544.261 185.458C544.485 185.783 545.027 186.392 545.805 186.906C546.572 187.413 547.468 187.765 548.436 187.765V191.494Z" fill="#222327"/>
<path d="M544.639 181.799C544.639 183.232 551.066 185.053 553.306 185.644C553.807 185.777 554.324 185.777 554.824 185.644C557.065 185.053 563.492 183.232 563.492 181.799C563.492 180.064 558.28 178.208 554.065 178.208C549.851 178.208 544.639 180.064 544.639 181.799Z" fill="#222327"/>
<path d="M552.682 134.151C592.75 136.67 602.522 123.88 603.988 118.483L581.511 105.949L556.102 101.249L520.921 119.528C523.038 123.88 528.042 132.602 552.682 134.151Z" fill="#222327"/>
<path fill-rule="evenodd" clip-rule="evenodd" d="M561.563 232.084C510.232 232.084 472.6 216.878 472.6 175.972C472.6 124.798 510.232 86.1934 561.563 86.1934C612.894 86.1934 649.674 128.389 649.674 175.972C649.674 216.878 612.894 232.084 561.563 232.084ZM563.579 216.373C525.821 216.373 498.141 205.238 498.141 175.282C498.141 137.807 525.821 109.536 563.579 109.536C601.337 109.536 628.392 140.437 628.392 175.282C628.392 205.238 601.337 216.373 563.579 216.373Z" fill="white"/>
<path d="M617.114 216.771C607.9 230.582 598.275 228.446 589.449 231.042L568.484 259.367C568.83 262.828 580.574 277.746 623.769 261.963C673.091 243.942 661.804 194.217 645.515 190.458C619.153 184.374 623.542 207.136 617.114 216.771Z" fill="#222327"/>
<rect width="5.19171" height="15.5751" rx="2.59585" transform="matrix(-1 0 0 1 582.754 237.271)" fill="white"/>
<path fill-rule="evenodd" clip-rule="evenodd" d="M582.754 249.731V250.25C582.754 251.684 581.592 252.846 580.158 252.846C578.724 252.846 577.562 251.684 577.562 250.25V249.731H582.754Z" fill="#256FC5"/>
<rect width="5.19171" height="15.5751" rx="2.59585" transform="matrix(-1 0 0 1 558.299 237.271)" fill="white"/>
<path fill-rule="evenodd" clip-rule="evenodd" d="M558.299 249.731V250.25C558.299 251.684 557.137 252.846 555.703 252.846C554.269 252.846 553.107 251.684 553.107 250.25V249.731H558.299Z" fill="#256FC5"/>
<path d="M597.109 296.093C596.38 295.822 595.482 296.428 595.104 297.446C594.725 298.465 594.418 299.29 595.739 299.781C597.059 300.271 597.365 299.446 597.744 298.428C598.123 297.409 597.838 296.364 597.109 296.093Z" fill="#222327"/>
<path d="M600.804 297.996C600.152 297.573 599.143 297.969 598.552 298.881C597.961 299.792 597.482 300.531 598.664 301.297C599.846 302.063 600.325 301.324 600.916 300.413C601.507 299.501 601.457 298.419 600.804 297.996Z" fill="#222327"/>
<path d="M592.677 295.02C593.454 295.048 594.053 295.951 594.013 297.037C593.974 298.122 593.942 299.003 592.534 298.952C591.127 298.9 591.159 298.02 591.198 296.934C591.238 295.849 591.9 294.991 592.677 295.02Z" fill="#222327"/>
<path d="M576.963 169.981C577.136 169.289 578.52 167.904 580.597 167.904C582.674 167.904 584.058 169.289 584.75 169.981" stroke="white" stroke-width="2.98324" stroke-linecap="round"/>
<path d="M538.023 169.981C537.85 169.289 536.466 167.904 534.389 167.904C532.313 167.904 530.928 169.289 530.236 169.981" stroke="white" stroke-width="2.98324" stroke-linecap="round"/>
<path fill-rule="evenodd" clip-rule="evenodd" d="M285.258 0C272.003 0 261.258 10.7452 261.258 24V59.5341C261.258 72.789 272.003 83.5341 285.258 83.5341H280.053V103.165L313.884 83.5341H398.479C411.734 83.5341 422.479 72.789 422.479 59.5341V24C422.479 10.7452 411.734 0 398.479 0H285.258Z" fill="#97C7FF"/>
<circle cx="302.19" cy="41.7666" r="20.8835" fill="#52A2FF"/>
<ellipse cx="302.19" cy="38.8429" rx="1.67068" ry="2.92369" fill="#1E86FF"/>
<ellipse cx="315.138" cy="39.2602" rx="1.25301" ry="2.50602" fill="#1E86FF"/>
<path fill-rule="evenodd" clip-rule="evenodd" d="M304.486 44.5024C304.277 50.0498 304.392 54.5707 308.038 54.7155C311.684 54.8603 314.105 50.4401 314.424 44.8971L304.486 44.5024Z" fill="#1E86FF"/>
<rect x="333.934" y="22.554" width="63.4859" height="7.51807" rx="3.75904" fill="#52A2FF"/>
<rect x="333.934" y="37.5901" width="42.6024" height="7.51807" rx="3.75904" fill="#52A2FF"/>
<rect x="333.934" y="52.6262" width="28.4016" height="7.51807" rx="3.75904" fill="#52A2FF"/>
<path fill-rule="evenodd" clip-rule="evenodd" d="M440.244 93.5576C453.499 93.5576 464.244 104.303 464.244 117.558V145.574C464.244 158.78 453.578 169.495 440.39 169.573H445.449V189.204L411.618 169.574H327.023C313.768 169.574 303.023 158.829 303.023 145.574V117.558C303.023 104.303 313.768 93.5576 327.023 93.5576H440.244Z" fill="#97C7FF"/>
<path d="M324.596 121.693C325.583 119.319 328.946 119.319 329.934 121.693L330.675 123.476C331.091 124.476 332.033 125.16 333.113 125.247L335.037 125.401C337.6 125.607 338.639 128.805 336.687 130.478L335.221 131.733C334.398 132.439 334.038 133.545 334.29 134.599L334.737 136.477C335.334 138.978 332.613 140.955 330.419 139.615L328.772 138.608C327.847 138.043 326.683 138.043 325.758 138.608L324.111 139.615C321.917 140.955 319.196 138.978 319.792 136.477L320.24 134.599C320.492 133.545 320.132 132.439 319.309 131.733L317.843 130.478C315.89 128.805 316.93 125.607 319.493 125.401L321.417 125.247C322.497 125.16 323.438 124.476 323.855 123.476L324.596 121.693Z" fill="#52A2FF"/>
<path d="M353.576 121.693C354.564 119.319 357.927 119.319 358.914 121.693L359.656 123.475C360.072 124.476 361.013 125.16 362.094 125.247L364.018 125.401C366.581 125.606 367.62 128.805 365.667 130.477L364.201 131.733C363.378 132.438 363.018 133.545 363.27 134.599L363.718 136.477C364.314 138.978 361.594 140.955 359.399 139.614L357.752 138.608C356.827 138.043 355.664 138.043 354.739 138.608L353.091 139.614C350.897 140.955 348.176 138.978 348.773 136.477L349.221 134.599C349.472 133.545 349.113 132.438 348.29 131.733L346.824 130.477C344.871 128.805 345.91 125.606 348.473 125.401L350.397 125.247C351.478 125.16 352.419 124.476 352.835 123.475L353.576 121.693Z" fill="#52A2FF"/>
<path d="M381.106 121.476C382.107 119.14 385.418 119.14 386.419 121.476L387.286 123.498C387.709 124.486 388.646 125.158 389.718 125.241L391.809 125.404C394.396 125.605 395.428 128.849 393.433 130.508L391.969 131.726C391.118 132.433 390.746 133.564 391.01 134.638L391.479 136.548C392.091 139.036 389.402 141.031 387.198 139.724L385.237 138.562C384.328 138.023 383.197 138.023 382.289 138.562L380.327 139.724C378.123 141.031 375.435 139.036 376.046 136.548L376.516 134.638C376.78 133.564 376.407 132.433 375.557 131.726L374.092 130.508C372.097 128.849 373.129 125.605 375.716 125.404L377.807 125.241C378.879 125.158 379.816 124.486 380.239 123.498L381.106 121.476Z" fill="#52A2FF"/>
<path d="M408.612 121.693C409.599 119.319 412.962 119.319 413.949 121.693L414.691 123.475C415.107 124.476 416.048 125.16 417.129 125.247L419.053 125.401C421.616 125.606 422.655 128.805 420.702 130.477L419.236 131.733C418.413 132.438 418.054 133.545 418.305 134.599L418.753 136.477C419.35 138.978 416.629 140.955 414.435 139.614L412.787 138.608C411.862 138.043 410.699 138.043 409.774 138.608L408.126 139.614C405.932 140.955 403.211 138.978 403.808 136.477L404.256 134.599C404.507 133.545 404.148 132.438 403.325 131.733L401.859 130.477C399.906 128.805 400.945 125.606 403.508 125.401L405.432 125.247C406.513 125.16 407.454 124.476 407.87 123.475L408.612 121.693Z" fill="#52A2FF"/>
<path d="M435.66 121.693C436.648 119.319 440.011 119.319 440.998 121.693L441.74 123.475C442.156 124.476 443.097 125.16 444.178 125.247L446.102 125.401C448.665 125.606 449.704 128.805 447.751 130.477L446.285 131.733C445.462 132.438 445.102 133.545 445.354 134.599L445.802 136.477C446.398 138.978 443.678 140.955 441.483 139.614L439.836 138.608C438.911 138.043 437.748 138.043 436.823 138.608L435.175 139.614C432.981 140.955 430.26 138.978 430.857 136.477L431.305 134.599C431.556 133.545 431.197 132.438 430.374 131.733L428.908 130.477C426.955 128.805 427.994 125.606 430.557 125.401L432.481 125.247C433.562 125.16 434.503 124.476 434.919 123.475L435.66 121.693Z" fill="#52A2FF"/>
</g>
<defs>
<linearGradient id="paint0_linear_37372_2210" x1="371" y1="202.59" x2="371" y2="606.895" gradientUnits="userSpaceOnUse">
<stop stop-color="#E18745"/>
<stop offset="1" stop-color="#D7A37E" stop-opacity="0"/>
</linearGradient>
<clipPath id="clip0_37372_2210">
<rect width="744" height="397" fill="white"/>
</clipPath>
</defs>
</svg>
