<svg width="110" height="13" viewBox="0 0 110 13" fill="none" xmlns="http://www.w3.org/2000/svg">
  <path d="M2.89844 6.84375C2.89844 5.03125 4.36719 3.57812 6.17969 3.57812C7.74219 3.57812 9.05469 4.67188 9.27344 6.14062H7.91406C7.75781 5.39062 7.00781 4.85938 6.17969 4.85938C5.08594 4.85938 4.19531 5.75 4.19531 6.84375C4.19531 7.9375 5.08594 8.82812 6.17969 8.82812C7.00781 8.82812 7.64844 8.29688 7.80469 7.54688H9.14844C8.94531 9.01562 7.74219 10.1094 6.17969 10.1094C4.36719 10.1094 2.89844 8.65625 2.89844 6.84375ZM6.11719 12.6719C2.91406 12.6719 0.273438 10.0625 0.289062 6.84375C0.289062 3.60938 2.91406 1.01562 6.11719 1.01562C9.35156 1.01562 11.9453 3.60938 11.9453 6.84375C11.9609 10.0625 9.35156 12.6719 6.11719 12.6719ZM6.11719 11.375C8.63281 11.375 10.6641 9.34375 10.6484 6.84375C10.6328 4.32812 8.61719 2.3125 6.11719 2.3125C3.63281 2.3125 1.60156 4.34375 1.58594 6.84375C1.57031 9.32812 3.61719 11.375 6.11719 11.375ZM17.3047 12.6719C14.8984 12.6719 13.4297 10.8438 13.4297 8.29688C13.4297 5.71875 14.9609 3.90625 17.2734 3.90625C19.0859 3.90625 20.4297 4.96875 20.6484 6.57812H19.3047C19.1172 5.79688 18.4297 5.09375 17.3047 5.09375C15.7891 5.09375 14.7734 6.34375 14.7734 8.25C14.7734 10.2188 15.7578 11.4688 17.3047 11.4688C18.3047 11.4688 19.0703 10.9375 19.3047 10H20.6484C20.4297 11.5156 19.1953 12.6719 17.3047 12.6719ZM25.7734 12.6719C23.4609 12.6719 21.8984 10.9375 21.8984 8.29688C21.8984 5.65625 23.4609 3.90625 25.7734 3.90625C28.0703 3.90625 29.6172 5.65625 29.6172 8.29688C29.6172 10.9375 28.0703 12.6719 25.7734 12.6719ZM25.7734 11.4844C27.4766 11.4844 28.2734 9.98438 28.2734 8.29688C28.2734 6.60938 27.4766 5.09375 25.7734 5.09375C24.0391 5.09375 23.2422 6.60938 23.2422 8.29688C23.2422 9.98438 24.0391 11.4844 25.7734 11.4844ZM34.5859 12.6719C32.4766 12.6719 30.9766 10.9688 30.9766 8.28125C30.9766 5.59375 32.4766 3.90625 34.6016 3.90625C36.2422 3.90625 36.7734 4.90625 37.0547 5.35938H37.1484V1.1875H38.5078V12.5H37.1953V11.2031H37.0547C36.7578 11.6719 36.2109 12.6719 34.5859 12.6719ZM34.7734 11.4688C36.3203 11.4688 37.1953 10.1562 37.1953 8.25C37.1953 6.375 36.3516 5.10938 34.7734 5.10938C33.1484 5.10938 32.3359 6.48438 32.3359 8.25C32.3359 10.0625 33.1641 11.4688 34.7734 11.4688ZM44.3984 12.6719C41.9453 12.6719 40.4297 10.9375 40.4297 8.32812C40.4297 5.71875 41.9609 3.90625 44.2734 3.90625C46.0547 3.90625 47.9297 5 47.9297 8.14062V8.70312H41.7734C41.8359 10.5 42.8828 11.4844 44.3984 11.4844C45.4141 11.4844 46.0547 11.0469 46.3672 10.5156H47.8047C47.3984 11.7969 46.1484 12.6719 44.3984 12.6719ZM41.7891 7.5625H46.5703C46.5703 6.14062 45.6641 5.09375 44.2734 5.09375C42.8047 5.09375 41.8672 6.25 41.7891 7.5625ZM49.6797 12.5V4.01562H51.0234V12.5H49.6797ZM50.3516 2.60938C49.8359 2.60938 49.4141 2.21875 49.4141 1.71875C49.4141 1.21875 49.8359 0.828125 50.3516 0.828125C50.8672 0.828125 51.3047 1.21875 51.3047 1.71875C51.3047 2.21875 50.8672 2.60938 50.3516 2.60938ZM56.8672 4.01562V5.14062H55.0859V10.0625C55.0859 11.1562 55.6172 11.3281 56.1953 11.3281C56.4453 11.3281 56.7891 11.3125 56.9922 11.2969V12.5469C56.7891 12.5781 56.4453 12.6094 56.0547 12.6094C54.9297 12.6094 53.7266 11.9062 53.7266 10.4062V5.14062H52.4453V4.01562H53.7266V1.98438H55.0859V4.01562H56.8672ZM67.4766 6.23438V7.46875H62.5234V6.23438H67.4766ZM73.5391 12.5L73.5234 11.4688L77.3828 7.40625C78.7266 5.98438 79.3672 5.21875 79.3672 4.17188C79.3672 3.01562 78.3828 2.25 77.1172 2.25C75.7734 2.25 74.9141 3.10938 74.9141 4.375H73.5859C73.5703 2.375 75.1172 1.03125 77.1641 1.03125C79.2109 1.03125 80.6797 2.40625 80.6797 4.17188C80.6797 5.4375 80.0859 6.42188 78.0859 8.48438L75.4922 11.1562V11.25H80.8828V12.5H73.5391ZM86.6328 12.6562C84.1172 12.6562 82.6797 10.5469 82.6797 6.84375C82.6797 3.17188 84.1484 1.03125 86.6328 1.03125C89.1172 1.03125 90.5859 3.17188 90.5859 6.84375C90.5859 10.5469 89.1328 12.6562 86.6328 12.6562ZM86.6328 11.4062C88.2578 11.4062 89.2109 9.76562 89.2109 6.84375C89.2109 3.92188 88.2578 2.25 86.6328 2.25C85.0078 2.25 84.0391 3.92188 84.0391 6.84375C84.0391 9.76562 84.9922 11.4062 86.6328 11.4062ZM92.4609 12.5L92.4453 11.4688L96.3047 7.40625C97.6484 5.98438 98.2891 5.21875 98.2891 4.17188C98.2891 3.01562 97.3047 2.25 96.0391 2.25C94.6953 2.25 93.8359 3.10938 93.8359 4.375H92.5078C92.4922 2.375 94.0391 1.03125 96.0859 1.03125C98.1328 1.03125 99.6016 2.40625 99.6016 4.17188C99.6016 5.4375 99.0078 6.42188 97.0078 8.48438L94.4141 11.1562V11.25H99.8047V12.5H92.4609ZM101.32 10.1875V9.03125L106.414 1.1875H108.148V8.95312H109.727V10.1875H108.148V12.5H106.805V10.1875H101.32ZM102.836 8.95312H106.805V2.96875H106.664L102.836 8.85938V8.95312Z" fill="#9CA3AF"/>
</svg>