<svg width="160" height="20" viewBox="0 0 160 20" fill="none" xmlns="http://www.w3.org/2000/svg">
  <path d="M2.23438 15.5V4.1875H6.07812C8.73438 4.1875 9.9375 5.76562 9.9375 7.78125C9.9375 9.78125 8.73438 11.3906 6.09375 11.3906H3.64062V15.5H2.23438ZM3.64062 10.1406H6.03125C7.82812 10.1406 8.54688 9.125 8.54688 7.78125C8.54688 6.42188 7.82812 5.4375 6.01562 5.4375H3.64062V10.1406ZM11.7344 15.5V7.01562H13.0312V8.3125H13.125C13.4375 7.45312 14.3125 6.875 15.3125 6.875C15.5156 6.875 15.8594 6.89062 16.0156 6.90625V8.26562C15.9219 8.23438 15.5469 8.17188 15.2031 8.17188C13.9844 8.17188 13.0781 9.01562 13.0781 10.1562V15.5H11.7344ZM17.3281 15.5V7.01562H18.6719V15.5H17.3281ZM18 5.60938C17.4844 5.60938 17.0625 5.21875 17.0625 4.71875C17.0625 4.21875 17.4844 3.82812 18 3.82812C18.5156 3.82812 18.9531 4.21875 18.9531 4.71875C18.9531 5.21875 18.5156 5.60938 18 5.60938ZM27.7969 7.01562L24.6562 15.5H23.2656L20.1406 7.01562H21.6094L23.9219 13.75H24.0156L26.3281 7.01562H27.7969ZM28.6094 13.0938C28.6094 11.1406 30.3281 10.7031 31.7969 10.5938C32.3359 10.5547 33.7109 10.4844 34.0938 10.4688V9.78125C34.0938 8.70312 33.4531 8.07812 32.1719 8.07812C31.0938 8.07812 30.4531 8.57812 30.2656 9.21875H28.8594C29.0312 7.85938 30.3594 6.90625 32.2344 6.90625C33.3438 6.90625 35.4219 7.23438 35.4219 9.90625V15.5H34.0938V14.3438H34.0312C33.75 14.9219 32.9688 15.7031 31.5 15.7031C29.8906 15.7031 28.6094 14.75 28.6094 13.0938ZM29.9531 13.1562C29.9531 14.0469 30.7031 14.5 31.7344 14.5C33.25 14.5 34.0938 13.4844 34.0938 12.4219V11.5625C33.6953 11.5938 32.3594 11.6953 31.9531 11.7188C30.7344 11.7969 29.9531 12.2344 29.9531 13.1562ZM41.0469 15.6719C38.6406 15.6719 37.1719 13.8438 37.1719 11.2969C37.1719 8.71875 38.7031 6.90625 41.0156 6.90625C42.8281 6.90625 44.1719 7.96875 44.3906 9.57812H43.0469C42.8594 8.79688 42.1719 8.09375 41.0469 8.09375C39.5312 8.09375 38.5156 9.34375 38.5156 11.25C38.5156 13.2188 39.5 14.4688 41.0469 14.4688C42.0469 14.4688 42.8125 13.9375 43.0469 13H44.3906C44.1719 14.5156 42.9375 15.6719 41.0469 15.6719ZM46.9062 18.6875C46.6094 18.6875 46.3281 18.6719 46.1562 18.6562V17.4531C46.2969 17.4688 46.6094 17.4844 46.8125 17.4844C47.3594 17.4844 47.8125 17.4375 48.2656 16.2031L48.5156 15.5625L45.375 7.01562H46.8438L49.1562 13.75H49.25L51.5625 7.01562H53.0312L49.4375 16.7188C48.9375 18.0469 48.1094 18.6875 46.9062 18.6875ZM58.7031 15.5V4.1875H62.5469C65.2031 4.1875 66.4062 5.76562 66.4062 7.78125C66.4062 9.78125 65.2031 11.3906 62.5625 11.3906H60.1094V15.5H58.7031ZM60.1094 10.1406H62.5C64.2969 10.1406 65.0156 9.125 65.0156 7.78125C65.0156 6.42188 64.2969 5.4375 62.4844 5.4375H60.1094V10.1406ZM71.5781 15.6719C69.2656 15.6719 67.7031 13.9375 67.7031 11.2969C67.7031 8.65625 69.2656 6.90625 71.5781 6.90625C73.875 6.90625 75.4219 8.65625 75.4219 11.2969C75.4219 13.9375 73.875 15.6719 71.5781 15.6719ZM71.5781 14.4844C73.2812 14.4844 74.0781 12.9844 74.0781 11.2969C74.0781 9.60938 73.2812 8.09375 71.5781 8.09375C69.8438 8.09375 69.0469 9.60938 69.0469 11.2969C69.0469 12.9844 69.8438 14.4844 71.5781 14.4844ZM78.5312 4.1875V15.5H77.1875V4.1875H78.5312ZM80.6719 15.5V7.01562H82.0156V15.5H80.6719ZM81.3438 5.60938C80.8281 5.60938 80.4062 5.21875 80.4062 4.71875C80.4062 4.21875 80.8281 3.82812 81.3438 3.82812C81.8594 3.82812 82.2969 4.21875 82.2969 4.71875C82.2969 5.21875 81.8594 5.60938 81.3438 5.60938ZM87.625 15.6719C85.2188 15.6719 83.75 13.8438 83.75 11.2969C83.75 8.71875 85.2812 6.90625 87.5938 6.90625C89.4062 6.90625 90.75 7.96875 90.9688 9.57812H89.625C89.4375 8.79688 88.75 8.09375 87.625 8.09375C86.1094 8.09375 85.0938 9.34375 85.0938 11.25C85.0938 13.2188 86.0781 14.4688 87.625 14.4688C88.625 14.4688 89.3906 13.9375 89.625 13H90.9688C90.75 14.5156 89.5156 15.6719 87.625 15.6719ZM93.4844 18.6875C93.1875 18.6875 92.9062 18.6719 92.7344 18.6562V17.4531C92.875 17.4688 93.1875 17.4844 93.3906 17.4844C93.9375 17.4844 94.3906 17.4375 94.8438 16.2031L95.0938 15.5625L91.9531 7.01562H93.4219L95.7344 13.75H95.8281L98.1406 7.01562H99.6094L96.0156 16.7188C95.5156 18.0469 94.6875 18.6875 93.4844 18.6875Z" fill="#E5E7EB"/>
  <path d="M131.797 15.5V4.1875H138.609V5.4375H133.203V9.21875H138.094V10.4531H133.203V15.5H131.797ZM139.781 15.5H138.312L142.453 4.1875H143.938L148.078 15.5H146.594L145.469 12.3125H140.922L139.781 15.5ZM141.344 11.0781H145.031L143.234 6.01562H143.141L141.344 11.0781ZM153.172 11.9531H154.703L155.906 13.5156C156.75 12.7812 157.281 11.5391 157.281 9.84375C157.281 6.92188 155.688 5.34375 153.641 5.34375C151.594 5.34375 150 6.92188 150 9.84375C150 12.7656 151.594 14.3438 153.641 14.3438C154.062 14.3438 154.469 14.2734 154.844 14.1406L153.172 11.9531ZM158.641 9.84375C158.641 11.9531 157.906 13.6016 156.719 14.5938L158.188 16.5625H156.656L155.672 15.2344C155.055 15.5156 154.375 15.6562 153.641 15.6562C150.734 15.6562 148.641 13.4219 148.641 9.84375C148.641 6.26562 150.734 4.03125 153.641 4.03125C156.531 4.03125 158.641 6.26562 158.641 9.84375Z" fill="#E5E7EB"/>
</svg>