<svg width="259" height="64" viewBox="0 0 259 64" fill="none" xmlns="http://www.w3.org/2000/svg">
<path d="M55.4866 19.3351H63.4479V28.6233H55.4866V47.4651H43.5446V35.7885C35.0525 37.5135 26.6268 38.4423 14.3531 38.4423H0.420744V29.3531H5.7283V10.5113H1.74763V1.55481H38.3697V10.5113H34.3891V28.358C37.64 27.9599 40.6918 27.4955 43.5446 26.9647V0.891367H55.4866V19.3351ZM6.98884 63.2551V43.5508H19.1962V54.0332H56.8135V63.2551H6.98884ZM17.6703 29.3531C19.3289 29.2868 20.9212 29.2868 22.4471 29.2204V10.5113H17.6703V29.3531ZM129.792 23.9792V33.2674H121.831V63.2551H109.889V52.839C101.397 55.2938 92.9712 56.687 80.6975 56.687H68.7555V2.8817H102.724V11.8382H80.6975V47.5978C92.8385 47.5978 101.463 46.4036 109.889 44.0152V0.891367H121.831V23.9792H129.792ZM196.137 23.9792V33.2674H188.175V63.2551H176.233V0.891367H188.175V23.9792H196.137ZM135.1 56.687V2.8817H169.798V56.687H135.1ZM147.042 47.5978H157.989V11.9709H147.042V47.5978ZM246.89 0.891367H258.5V36.85H246.89V0.891367ZM197.464 29.7512C205.226 28.1589 211.064 25.7042 214.315 22.586L201.444 23.3821V14.7573H217.102V10.5113H202.771V1.55481H228.712V13.4968H232.493V1.22309H243.772V36.85H232.493V22.785H226.987C223.471 29.6185 214.647 35.2578 201.245 38.6413L197.464 29.7512ZM204.695 53.7679C221.082 53.1708 225.859 49.7872 225.859 44.0152V38.9731H237.801V45.0767C237.801 46.669 237.602 48.1949 237.204 49.5882C244.9 50.1189 252.529 51.1804 258.5 52.5737L255.316 63.2551C248.482 60.8667 238.929 58.5447 231.233 57.2841C225.726 60.9994 216.903 62.7907 205.956 63.2551L204.695 53.7679Z" fill="#3692FF"/>
</svg>
